<svg id="圖層_1" data-name="圖層 1" xmlns="http://www.w3.org/2000/svg" viewBox="0 0 18 78"><path d="M54.5,40.9H45.1a4.27,4.27,0,0,0-4.3,4.3v9.4a4.27,4.27,0,0,0,4.3,4.3h9.4a4.27,4.27,0,0,0,4.3-4.3V45.2A4.33,4.33,0,0,0,54.5,40.9Z" transform="translate(-40.8 -10.9)"/><path d="M54.5,10.9H45.1a4.27,4.27,0,0,0-4.3,4.3v9.4a4.27,4.27,0,0,0,4.3,4.3h9.4a4.27,4.27,0,0,0,4.3-4.3V15.2A4.33,4.33,0,0,0,54.5,10.9Z" transform="translate(-40.8 -10.9)"/><path d="M54.5,70.9H45.1a4.27,4.27,0,0,0-4.3,4.3v9.4a4.27,4.27,0,0,0,4.3,4.3h9.4a4.27,4.27,0,0,0,4.3-4.3V75.2A4.33,4.33,0,0,0,54.5,70.9Z" transform="translate(-40.8 -10.9)"/></svg>